<svg xmlns="http://www.w3.org/2000/svg" enable-background="new 0 0 1200 1200" viewBox="0 0 1200 1200" id="women-doing-shopping-with-trolley-with-market"><path fill="#ffbe55" d="M1182.522 398.696c85.973 283.108-159.216 580.812-429.446 666.599-272.018 86.354-637.794-20.312-731.298-290.615-97.883-282.963 149.108-610.834 442.49-694.111 269.555-76.512 633.149 37.875 718.254 318.127z"></path><path fill="#fff" d="M1182.522 398.696c85.973 283.108-159.216 580.812-429.446 666.599-272.018 86.354-637.794-20.312-731.298-290.615-97.883-282.963 149.108-610.834 442.49-694.111 269.555-76.512 633.149 37.875 718.254 318.127z" opacity=".54"></path><path fill="#0e538c" d="M788.794 1107.468c.751 3.677 1.266 9.375-1.6 14.494-3.155 5.637-8.424 7.027-23.457 11.9-21.266 6.894-26.842 8.895-35.867 8.768-5.363-.076-14.496-.43-15.941-4.782-1.166-3.511 2.94-8.867 9.83-13.284 11.319-5.698 26.696-11.397 38.015-17.096"></path><path fill="#f4b99f" d="M787.369 1107.291h-26.031L747.12 777.914h54.467a1922.997 1922.997 0 0 1-.908 137.032c-2.395 56.645-7.148 143.334-13.31 192.345zM861.092 1107.291h-26.031l-14.218-329.377h54.467a1922.997 1922.997 0 0 1-.908 137.032c-2.396 56.645-7.148 143.334-13.31 192.345z"></path><path fill="#0e538c" d="M725.074 189.751c-1.995 2.352-17.275 20.891-16.832 45.969.374 21.152 11.709 50.283 8.733 66.906-1.81 10.11-4.303 12.561-9.315 25.733-5.892 15.482-20.955 55.064-13.391 84.061 9.485 36.362 55.54 59.876 92.572 64.618 59.519 7.622 125.69-29.405 129.834-67.478 3.59-32.974-41.869-43.564-45.995-97.785-1.776-23.332 5.847-31.82.582-62.331-2.054-11.903-5.567-35.457-20.96-54.325-21.291-26.098-54.207-30.1-66.018-30.841-1.011-.064-1.989-.134-3.364-.161-21.572-.438-42.816 10.27-55.846 25.634z"></path><path fill="#f4b99f" d="M736.278 372.893c-13.156-1.523-24.786 8.563-25.139 21.802l-3.933 147.327c-.151 5.67 5.231 10.703 12.326 11.525 7.328.849 13.856-3.089 14.718-8.876l21.741-146.053c1.876-12.605-7.055-24.259-19.713-25.725z"></path><path fill="#f4b99f" d="m712.777 530.438-109.246 95.691 9.713 12.856 116.459-86.834c4.135-3.083 3.757-10.538-.842-16.625-4.744-6.28-12.076-8.599-16.084-5.088zM767.668 307.102l4.121 47.502h50.764l4.122-104.105z"></path><path fill="#f4b99f" d="M822.762 349.328c51.127 13.697 73.333 33.009 73.333 33.009-90.556 50.012-180.178 0-180.178 0 12.136-11.003 55.084-33.009 55.084-33.009h51.761z"></path><path fill="#ffbe55" d="M720.459 459.423c6.545 17.231 14.405 17.826 24.226 39.367a124.531 124.531 0 0 1 9.159 29.24H869.43a320.692 320.692 0 0 1 .421-39.334c3.145-43.52 14.709-79.623 26.244-106.359a228.077 228.077 0 0 0-55.731-27.732s-44.173 43.58-79.39 0c0 0-30.466 12.847-38.037 22.342a169.126 169.126 0 0 0-6.066 32.247c-1.498 16.87-2.937 33.052 3.588 50.229z"></path><path fill="#0e538c" d="M753.844 528.029s-39.441 235.82-93.949 338.266c0 0 42.544 19.33 93.949 0 0 0 86.229 32.86 142.251-1.933 0 0 63.592 1.933 86.304-15.464 0 0-39.731-145.862-112.969-320.87H753.844z"></path><path fill="#f4b99f" d="M604.414 625.799s-18.176 3.728-26.05 20.501c-7.874 16.773 9.275 12.21 15.779.455s19.524 1.719 23.379-10.529c0 0 .852-8.435-13.108-10.427z"></path><circle cx="450.894" cy="1119.542" r="19.218" fill="#ffbe55"></circle><circle cx="450.894" cy="1119.542" r="19.218" fill="#ffbe55"></circle><circle cx="450.894" cy="1119.542" r="13.589" opacity=".1"></circle><circle cx="450.894" cy="1119.542" r="19.218" opacity=".11"></circle><circle cx="283.212" cy="1119.542" r="19.218" fill="#ffbe55"></circle><circle cx="283.212" cy="1119.542" r="19.218" fill="#ffbe55"></circle><circle cx="283.212" cy="1119.542" r="13.589" opacity=".1"></circle><circle cx="283.212" cy="1119.542" r="19.218" opacity=".11"></circle><circle cx="612.79" cy="1119.542" r="19.218" fill="#ffbe55"></circle><path fill="#ffbe55" d="m454.655 959.024 46.325-105.209 73.451-166.816 16.962-38.523-3.761 2.157h151.857l-4.2-5.514-38.97 104.799L634.152 917.1l-14.341 38.568 4.2-3.198H450.893c-5.606 0-5.615 8.712 0 8.712h173.118c2.054 0 3.524-1.378 4.2-3.198l38.97-104.799 62.167-167.182 14.341-38.568c1.004-2.699-1.572-5.514-4.2-5.514H587.632c-1.398 0-3.163.799-3.761 2.157l-46.325 105.209-73.451 166.816-16.962 38.523c-2.238 5.085 5.266 9.524 7.522 4.398z"></path><path fill="#ffbe55" d="M622.759 1095.969H450.894l4.356 4.356V958.569l-4.356 4.356h171.865l-4.356-4.356v141.756c0 5.605 8.712 5.615 8.712 0V958.569c0-2.355-1.996-4.356-4.356-4.356H450.894c-2.355 0-4.356 1.996-4.356 4.356v141.756c0 2.355 1.996 4.356 4.356 4.356h171.865c5.606-.001 5.615-8.712 0-8.712z"></path><path fill="#ffbe55" d="M622.759 1097.711H245.787c-5.606 0-5.615 8.712 0 8.712h376.972c5.606 0 5.615-8.712 0-8.712zM539.815 746.565H158.741c-3.386 0-5.316 3.676-3.761 6.554l97.413 180.328 13.817 25.578c.722 1.337 2.267 2.157 3.761 2.157h351.046c2.083 0 3.49-1.385 4.2-3.198l70.646-180.415 9.981-25.49c1.054-2.69-1.612-5.514-4.2-5.514H539.815c-5.606 0-5.615 8.712 0 8.712H701.645l-4.2-5.514-70.646 180.415-9.981 25.49 4.2-3.198H269.972l3.761 2.157-97.413-180.328-13.817-25.578-3.761 6.554H539.816c5.604.002 5.614-8.71-.001-8.71z"></path><path fill="#ffbe55" d="m205.558 752.57 97.413 180.328 13.817 25.578c1.999 3.701 7.642.406 5.642-3.298L225.017 774.85 211.2 749.272c-1.999-3.701-7.642-.406-5.642 3.298zM271.201 752.57l97.413 180.328 13.817 25.578c1.999 3.701 7.642.406 5.642-3.298L290.66 774.85l-13.817-25.578c-2-3.701-7.643-.406-5.642 3.298zM326.816 752.57l97.413 180.328 13.817 25.578c1.999 3.701 7.642.406 5.642-3.298L346.275 774.85l-13.817-25.578c-2-3.701-7.643-.406-5.642 3.298zM665.584 749.272 568.171 929.6l-13.817 25.578c-1.999 3.7 3.64 7.003 5.642 3.298l97.413-180.328 13.817-25.578c1.999-3.7-3.64-7.003-5.642-3.298zM601.321 749.272 503.907 929.6l-13.817 25.578c-1.999 3.7 3.64 7.003 5.642 3.298l97.413-180.328 13.817-25.578c1.999-3.7-3.64-7.003-5.641-3.298z"></path><path fill="#ffbe55" d="M459.055 749.272 361.642 929.6l-13.817 25.578c-1.999 3.7 3.64 7.003 5.642 3.298l97.413-180.328 13.817-25.578c1.998-3.7-3.641-7.003-5.642-3.298zM475.193 750.921v205.905c0 4.204 6.534 4.211 6.534 0V750.921c0-4.204-6.534-4.211-6.534 0z"></path><path fill="#ffbe55" d="M224.333 872.966h184.904c23.311 0 46.709-.591 70.015 0 24.625.624 49.301 2.731 73.893 4.102l97.82 5.454c2.801.156 2.792-4.2 0-4.356-56.956-3.176-114.01-7.773-171.025-9.535-58.976-1.823-118.285-.021-177.287-.021h-78.321c-2.802 0-2.806 4.356.001 4.356zM197.743 825.3h203.292c26.033 0 52.157-.643 78.184 0 27.199.672 54.459 3.017 81.621 4.531l107.212 5.977c2.801.156 2.792-4.2 0-4.356-62.629-3.492-125.36-8.524-188.052-10.485-21.422-.67-42.966-.024-64.397-.024h-217.86c-2.803.001-2.807 4.357 0 4.357z"></path><circle cx="612.79" cy="1119.542" r="19.218" fill="#ffbe55"></circle><circle cx="612.79" cy="1119.542" r="13.589" opacity=".1"></circle><circle cx="355.733" cy="1119.542" r="19.218" fill="#ffbe55"></circle><circle cx="355.733" cy="1119.542" r="19.218" fill="#ffbe55"></circle><circle cx="355.733" cy="1119.542" r="13.589" opacity=".1"></circle><path fill="#f4b99f" d="M759.775 1107.468s-16.022 7.501-28.553 17.392c-1.673 1.32-1.12 4.033.957 4.51 6.861 1.577 23.167.678 56.615-21.902a63.801 63.801 0 0 0-29.019 0z"></path><path fill="#0e538c" d="M863.974 1107.468c.751 3.677 1.266 9.375-1.6 14.494-3.155 5.637-8.424 7.027-23.457 11.9-21.266 6.894-26.842 8.895-35.867 8.768-5.364-.076-14.496-.43-15.941-4.782-1.166-3.511 2.94-8.867 9.83-13.284 11.319-5.698 26.696-11.397 38.015-17.096"></path><path fill="#f4b99f" d="M834.955 1107.468s-16.022 7.501-28.553 17.392c-1.673 1.32-1.12 4.033.957 4.51 6.861 1.577 23.167.678 56.615-21.902a63.267 63.267 0 0 0-29.019 0zM880.596 372.69c-13.984-1.619-26.347 9.102-26.723 23.175l-4.18 156.605c-.161 6.027 5.561 11.377 13.102 12.25 7.789.902 14.729-3.283 15.645-9.435l23.11-155.251c1.995-13.398-7.499-25.786-20.954-27.344z"></path><path fill="#f4b99f" d="M855.615 540.156 739.49 641.873l10.325 13.665 123.793-92.302c4.395-3.277 3.994-11.201-.895-17.672-5.045-6.675-12.838-9.14-17.098-5.408z"></path><path fill="#f4b99f" d="M740.068 638.998s-21.481-1.065-35.164 15.49 6.886 16.386 17.582 5.068c10.696-11.318 21.42 7.568 29.285-5.068 0 0 3.392-9.223-11.703-15.49z"></path><path fill="#e5a691" d="M769.574 329.071a100.516 100.516 0 0 0 17.834-1.993c6.829-1.388 13.119-2.667 19.265-6.218 3.607-2.084 12.26-7.894 18.067-21.508-1.494 6.266-3.865 11.024-5.808 14.236-1.989 3.289-8.659 13.442-21.489 19.136-4.291 1.904-8.465 3.757-14.113 3.136-7.089-.78-11.878-4.95-13.756-6.789z"></path><path fill="#f4b99f" d="M836.489 243.908c.334-2.977 3.215-33.678-22.356-52.525-3.976-2.931-22.651-15.917-46.689-12.013-4.7.763-14.963 2.597-24.302 10.033-29.869 23.784-16.648 78.264-14.395 86.855 5.077 19.351 13.228 29.688 15.553 32.511 4.867 5.911 19.829 24.081 39.221 22.372 7.841-.691 13.251-4.353 19.693-8.714 16.239-10.994 23.451-26.091 26.121-31.827 8.764-18.838 8.459-36.2 7.154-46.692z"></path><path fill="#f4b99f" d="M834.185 238.935c5.149-2.33 14.359 3.98 15.841 12.631 2.115 12.349-12.604 23.103-17.936 20.309-6.345-3.324-5.985-29.284 2.095-32.94z"></path><path fill="#0e538c" d="M757.117 217.674s22.888 33.306 72.327 37.71c0 0-2.351-14.194 9.517-16.57 0 0 10.303-63.712-57.514-66.001 0 0-68.275-3.662-60.493 65.918 0 0 15.106-2.288 36.163-21.057z"></path><path fill="#0e538c" d="M818.461 254.063s21.988 35.436 9.875 69.559c0 0 11.987-38.803 3.533-67.636s-13.408-1.923-13.408-1.923z"></path><path fill="#ffbe55" d="m327.827 544.663 8.688-22.763 8.688 22.763 15.885 6.586-15.885 6.587-8.688 22.763-8.688-22.763-15.886-6.587zM546.122 350.278l4.033-10.567 4.033 10.567 7.374 3.057-7.374 3.057-4.033 10.567-4.033-10.567-7.374-3.057zM989.925 664.498l4.033-10.567 4.033 10.567 7.374 3.057-7.374 3.058-4.033 10.566-4.033-10.566-7.374-3.058zM163.63 937.704l2.21-5.792 2.211 5.792 4.042 1.676-4.042 1.676-2.211 5.792-2.21-5.792-4.042-1.676zM150.48 635.987l3.954-10.359 3.953 10.359 7.229 2.997-7.229 2.997-3.953 10.359-3.954-10.359-7.229-2.997zM549.978 548.252l3.954-10.358 3.953 10.358 7.229 2.997-7.229 2.997-3.953 10.359-3.954-10.359-7.228-2.997zM985.901 360.852l8.057-21.109 8.056 21.109 14.731 6.107-14.731 6.107-8.056 21.108-8.057-21.108-14.73-6.107zM1035.996 525.349l3.535-9.262 3.536 9.262 6.463 2.68-6.463 2.68-3.536 9.263-3.535-9.263-6.463-2.68z"></path></svg>